<?xml version="1.0"?>
<svg xmlns="http://www.w3.org/2000/svg" height="700" width="710" xmlns:xlink="http://www.w3.org/1999/xlink">
<g id="b" transform="translate(2958.6,442.63)">
<path stroke-linejoin="round" d="m-2693-271.01-13.7 38.57 26.2-0.15-0.3-37.2-12.2-1.22z" fill-rule="evenodd" stroke="#000" stroke-linecap="round" stroke-width=".20784px" fill="#025"/>
<use xlink:href="#a" transform="translate(-2865.6 -441.94)" height="700" width="710" y="0" x="0"/>
<g stroke="#000" transform="matrix(.29795 0 0 .29795 -2051.9 19.119)">
<g fill-rule="evenodd" stroke-width="1px" fill="#a13c2a">
<path d="m-2718.3 156.36 234.3 335.37v-161.63l-122.2-174.75-112.1 1.01z"/>
<path d="m-2487 799.86h113.1v-733.41l-113.1 0.003v733.41z"/>
<path d="m-2972.4 156.36v22.73h95v-24.75l-95 2.02z"/>
</g>
<g fill-rule="evenodd">
<g stroke-width="1px">
<path d="m-2374.3 161.65v311.43l80.7-20c-11.7-99.39-27.6-194.29-41.4-291.43 14.1 85.32 21.1 171.16 45.3 252.56l57.3-27.41c-2.6-32.72-49.7-156.58-72.6-227.29-13.5-11.56-50.7-17.06-69.3 2.14z" fill="#fff"/>
<path d="m-2994.6 161.41h1022.8c-0.3-33.8-0.8-87.46 14.6-94.957h-1051c18.4 4.944 13.1 63.037 13.6 94.957z" fill="#a13c2a"/>
<path d="m-3029.2 44.505v21.948h1084.2v-21.948h-1084.2z" fill="#a13c2a"/>
</g>
<path stroke-linejoin="round" d="m-2299.6 464.2c0 21.06-17.1 38.13-38.1 38.13-21.1 0-38.2-17.07-38.2-38.13s17.1-38.13 38.2-38.13c21 0 38.1 17.07 38.1 38.13z" transform="matrix(1.0792 0 0 .99975 189.23 -1.3974)" stroke-linecap="round" stroke-width=".5"/>
<path stroke-linejoin="round" d="m-2300.2 464.2c0 21.75-16.8 39.39-37.5 39.39-20.8 0-37.6-17.64-37.6-39.39s16.8-39.39 37.6-39.39c20.7 0 37.5 17.64 37.5 39.39z" transform="matrix(.46485 .71798 -.677 .45807 -861.01 1864.3)" stroke-linecap="round" stroke-width=".5"/>
</g>
<g stroke-linejoin="round" stroke-linecap="round" stroke-width="10" fill="none">
<path d="m-2369.3 421.02c13.8-15.53 45.5-20.2 64.6-6.06"/>
<path d="m-2368.8 393.74c13.8-13.5 41-18.17 60.6-6.56"/>
<path d="m-2295.8 368.43c10.9-12.97 26.7-22.76 48.8-16.97"/>
<path d="m-2300.9 341.53c9.1-12.97 33.1-18.72 48.3-11.95"/>
</g>
</g>
<g transform="matrix(.37018 0 0 .37018 -2300 -312.87)">
<path stroke-linejoin="round" d="m-803.56-153.22c2.05-6.49 13.51-57.48 13.58-83.02 0.02-6.18-0.48-10.8-0.79-13.43-0.35-2.85-1.95-6.74-1.95-6.74l-64.79 6.73-0.71-4.52c5.17-8.56 6.04-26.33-12.24-24.61l-0.58 16.9c-7.88 14.39-9.05 28.78-10.43 41.98-1.11 10.61 12.54 28.34 19.12 45.58l5.21 13.78" fill-rule="evenodd" stroke="#000" stroke-linecap="round" stroke-width=".94565" fill="#a13c2a"/>
</g>
<g stroke="#000" fill="#a13c2a" fill-rule="evenodd">
<path stroke-linejoin="round" d="m-2709.2-292.95c7.9-2.67 17-3.58 25.1-3.37 15.3-2.04 30.6-3.89 45.9-4.67 4.1-21.19 10.2-42.38 17.2-63.57l23.6 3.37c-2.4 25.92-3.4 51.85-11.6 77.77-1 3.73 0.9 7.06-7.8 7.86-13.9 8.03-41.6 13.14-65.2 17.04-8.9 0.52-10.6 10.79-16.5 18.95-11.3 20.92-23.3 40.86-29.9 67.98-0.9 3.99-0.5 9.3-0.5 13.74l-71.9 25.94c-2.5-5.88-1.4-12.48-1.5-18.01-2.1-16.56-5.5-32.82-9.2-48.99-2.3-5.45-4.5-12.01-6.3-18.9-1.7-0.67-2.2-2.58-1-4.38-1.2-5.26-2.1-10.61-2.6-15.73l-0.5-7.01-1.3 3.48-33.5-8.13c1.6-20.54 8.7-36.01 30.8-39.7l35.8-7.31 42.7 2.97 38.2 0.67z" stroke-linecap="round" stroke-width=".41568"/>
<path stroke-linejoin="round" d="m-2833.7-13.605c-2.6 6.6517-2.7 10.009-3.8 16.09-0.6 7.4773 5.1 12.505 4.3 21.85-0.9 9.345-6.1 8.917-11.5 8.857-5.4-0.061-10.7-0.979-10.9-4.557-5.6-1.573-13.5 4.767-71.6 3.65-2.5-0.341-2.7-4.041-3-6.668 2.6-0.708 5.3-1.034 8.2-0.59 14.5-7.091 31.9-8.732 48-18.148 5.4-3.1332 10.6-5.4756 8.8-11.586" stroke-linecap="round" stroke-width=".42875"/>
<path d="m-2766.3-29.994c5.9 0.041 11.3 0.52 11.3 7.139l2.7 23.24c1.6 13.753-4.7 20.904-14.3 23.78-4.3 0.338-5.5-0.198-7.9-0.192-0.7-0.099-4.1 4.143 1.4 8.334l32.5 0.315c6.1-0.982 7.4-14.169 7.1-19.139-0.5-7.11 1-17.369 2.8-30.222 1.9-10.017 11.1-21.156 11.2-31.174-0.2-7.383-4.4-15.034-10.2-14.518l-30.4 5.07-100.3-30.623c-17.2 18.114-34.9 35.209-49.4 56.932-4.6 6.879 1.3 14.204 8.2 21.631 4.5 4.8195 8.9 10.792 16.6 12.214l118.5-32.787" stroke-width=".37018px"/>
</g>
<g stroke="#000" stroke-width=".18509" fill="none">
<path d="m-2749.1 15.403c-2.7 4.433-6.2 8.397-10.8 11.794h-5.2c-0.9 3.164-0.2 5.206 4.7 5.189"/>
<path d="m-2745.2 16.514c-1.8 6.436-6 7.342-7.6 11.35l-3.9 0.111c-1.2 3.109-0.5 4.316 4.9 4.411"/>
<path d="m-2741.4 17.182c-1.4 5.545-3.5 5.618-4.9 10.404l-3.5 1.946c-0.7 1.052-0.6 2.871 4.6 2.854"/>
<path d="m-2738.2 17.358c0.8 2.346-1.6 6.417-2.9 11.064-2.6 2.304-0.1 4.818 3.5 2.224"/>
</g>
<g stroke="#000" stroke-width=".37018px" fill-rule="evenodd">
<path d="m-2801.2-125.56c-27.3 14.02-54.8 30.02-88.2 68.365-9.9-17.839-17.4-38.302-24.6-58.035-1.5-3.94-1.9-6.2-0.5-9.46 3.3-7.89 8.8-14.9 14.7-20.82 1.9-1.93 3.5-2.25 6.2-2.07 32.4 2.22 66.2 13.53 92.4 22.02z" fill="#a13c2a"/>
<path d="m-2860.5-87.449c-2.6-15.981-10.3-25.581-18.6-37.981 10 9.48 15.5 20.61 21.1 35.55"/>
<path d="m-2858.2-89.756c-15.4-37.454-29.6-44.824-43.6-53.754 0 0 14 8.93 0-0.01 0.7-0.68 1.3-1.34 2-1.99 1.9-1.93 3.5-2.25 6.2-2.07 32.4 2.22 66.2 13.53 92.4 22.02" fill="#fff"/>
</g>
<g stroke="#000" stroke-width="1px" transform="matrix(.37018 0 0 .37018 -2937.1 -321.99)">
<path d="m566.08 490.22-200.63 41.87c-0.27 0.17-2.41 1.67-2.68 1.83-127.47 78-221.03 111.24-214.97 237.73 115.42-71.24 243.85-32.65 361.38-63.57 79.42-20.9 66.81-119.56 60.12-190.08-0.95-10.01-2.79-19.2-3.22-27.78z" fill-rule="evenodd" fill="#fac53a"/>
<g fill="none">
<path d="m147.58 763.12c114.01-66.66 240.2-29.8 355.83-60.22 87.88-23.11 63.04-141.19 58.26-211.24"/>
<path d="m147.53 753.99c112.34-61.73 236-26.77 349.51-56.63 85.16-22.4 64.46-134 58.74-204.63"/>
<path d="m147.97 745.5c110.68-57.15 231.89-24 343.3-53.31 82.76-21.77 65.55-127.78 59.27-198.57"/>
<path d="m149.89 728.35c107.03-48.16 223-18.74 329.95-46.88 77.83-20.47 67.25-115.44 60.48-185.56"/>
<path d="m152.2 719.07c104.59-42.87 217.2-15.76 321.26-43.14 75.41-19.83 67.82-109.6 61.13-178.94"/>
<path d="m154.34 710.8c102.35-38.45 211.91-13.35 313.36-40.04 73.03-19.21 68.21-104.01 61.75-172.33"/>
<path d="m157.37 701.69c99.62-33.6 205.59-10.81 303.93-36.68 70.56-18.56 68.45-98.34 62.41-165.33"/>
<path d="m160.81 693.57c96.93-29.3 199.41-8.66 294.73-33.74 68.44-18 68.51-93.6 62.93-159.26"/>
<path d="m164.34 685.21c93.99-25.13 192.75-6.69 284.82-30.92 66.15-17.4 68.43-88.62 63.47-152.65"/>
<path d="m168.44 677.56c91-21.42 186.09-5.06 274.96-28.44 63.88-16.81 68.2-83.81 63.95-146.06"/>
<path d="m173.62 669.64c87.69-17.8 178.78-3.61 264.11-26.06 61.63-16.21 67.82-79.13 64.37-139.43"/>
<path d="m178.95 662.39c84.26-14.6 171.27-2.48 253.02-23.98 59.5-15.66 67.32-74.85 64.69-133.19"/>
<path d="m184.86 654.9c80.41-11.55 162.95-1.57 240.73-22.04 57.07-15.01 66.6-70.08 64.96-126.03"/>
<path d="m191.15 648.15c76.58-9.05 154.78-1.02 228.67-20.46 54.95-14.45 65.83-66.04 65.1-119.79"/>
<path d="m198.49 640.93c72.18-6.75 145.47-0.73 214.96-19.01 52.49-13.81 64.76-61.5 65.12-112.59"/>
<path d="m206.32 633.89c67.65-4.92 135.99-0.76 201.01-17.86 50.09-13.18 63.56-57.22 64.99-105.63"/>
<path d="m213.92 627.45c63.06-3.55 126.49-1.04 187.03-16.96 47.62-12.53 62.14-52.94 64.69-98.48"/>
<path d="m221.62 621.6c58.61-2.61 117.33-1.49 173.56-16.28 45.5-11.97 60.78-49.39 64.28-92.42"/>
<path d="m229.09 615.53c54.23-2 108.4-2.07 160.43-15.76 43.07-11.33 59.06-45.47 63.61-85.59"/>
<path d="m237.85 609.86c49.36-1.62 98.52-2.79 145.9-15.26 40.53-10.66 57.08-41.51 62.69-78.54"/>
<path d="m246.61 603.8c44.02-1.49 88.46-3.61 130.77-14.74 37.81-9.95 54.75-37.47 61.4-71.19"/>
<path d="m255.17 598.13c39.42-1.52 78.5-4.26 116.44-14.24 35.52-9.35 52.62-34.2 60.08-65.12"/>
<path d="m266.05 591.61c33.55-1.71 66.77-4.95 99.17-13.48 32.43-8.53 49.51-30 57.91-57.22"/>
<path d="m275.89 585.52c28.24-1.93 56.2-5.36 83.56-12.56 29.7-7.81 46.53-26.48 55.6-50.47"/>
<path d="m287.49 578.52c22.13-2.1 44.04-5.43 65.58-11.1 26.33-6.93 42.54-22.38 52.21-42.51"/>
<path d="m299.98 571.31c15.93-2.08 31.73-4.96 47.33-9.06 23.11-6.08 38.42-18.73 48.36-35.34"/>
<path d="m314.8 562.61c9-1.62 17.96-3.57 26.84-5.9 19.44-5.12 33.36-14.87 43.2-27.72"/>
<path d="m332.17 552.48c1.24-0.31 2.48-0.62 3.71-0.95 15.26-4.01 28.81-12.23 37.97-21.22"/>
<path d="m148.98 737.15c108.85-52.49 227.41-21.24 336.58-49.96 80.3-21.13 66.48-121.56 59.85-192.17"/>
</g>
</g>
<g transform="matrix(1.1105,0,0,1.1105,-3159.6,-813.43)">
<g transform="matrix(.23523 0 0 .23523 156.1 456.44)">
<path stroke-linejoin="round" d="m635.87 62.205 121.01-24.199 171.28-13.658 131.84 27.265c-24.7 125.09-109.57 169.82-207.85 172-93.08 2.05-136.55-21.85-166.95-54.13-28.88-30.68-44.23-78.807-49.33-107.28z" fill-rule="evenodd" stroke="#000" stroke-linecap="round" stroke-width="1px" fill="#fff"/>
<g fill="none">
<path stroke-linejoin="round" d="m686.42 52.087c18.24 90.213 70.87 123.62 167.85 119.81 97.21-3.83 145.6-66.23 151.53-126.8 0-0.826-0.1-2.021 0.4-4.158" stroke="#04a" stroke-width="17.82"/>
<path d="m732.57 43.449c17.74 68.641 56.51 83.521 119.81 81.071 59.15-2.29 104.89-41.054 104.45-89.679-0.16-1.851 0.1-3.118 0.37-4.172" stroke="#308d57" stroke-width="10.935"/>
<path d="m702.33 49.933c13.33 63.177 46.86 110.4 150.76 105.85 90.45-3.96 133.84-65.141 135.58-116.27-0.06-0.229-0.06-1.309 0.17-2.387" stroke="#c13c1b" stroke-width="10.935"/>
<path d="m747.61 40.077c8.99 29.964 19.01 74.763 104.74 68.273 56.16-4.25 85.84-37.743 87.96-68.989 0.17-3.551 0.15-11.436 0.58-12.472" stroke="#04a" stroke-width="16.038"/>
<path d="m717.07 46.118c17.95 85.332 81.28 97.432 136.98 94.122 75.68-4.51 116.4-51.372 118.49-100.98 0.07-0.905 0.06-4.302 0.49-5.68" stroke="#04a" stroke-width="16.038"/>
<path d="m656.27 58.688c19.82 95.762 73.23 147.95 194.05 143.65 0.47-0.02 0.94-0.03 1.42-0.05h0.04c160.42-6.28 180.62-126.34 186.52-154.29" stroke="#fac53a" stroke-width="40"/>
<path stroke-linejoin="round" d="m635.87 62.205 121.01-24.199 171.28-13.658 131.84 27.265c-24.7 125.09-109.57 169.82-207.85 172-93.08 2.05-136.55-21.85-166.95-54.13-28.88-30.68-44.23-78.807-49.33-107.28z" stroke="#000" stroke-linecap="round" stroke-width="2"/>
</g>
<g stroke="#c13c1b" fill="none" transform="matrix(.95574 -.29421 .29421 .95574 45.238 248.09)">
<path d="m828.26 211.13c-0.14-7.45 4.89-18.97 9.06-26.23 3.81 7.34 8.61 19.12 8.58 26.12-0.06 13.47-17.41 12.79-17.64 0.11z"/>
<path d="m830.59 210.95c-0.1-5.52 3.6-14.05 6.69-19.43 2.8 5.44 6.34 14.16 6.32 19.35-0.04 9.97-12.84 9.47-13.01 0.08z"/>
<path stroke-linejoin="round" d="m830.64 210.69c0.94-0.86 3.27-2.46 6.4-2.46 3.14 0 4.91 1.13 6.31 2.35" stroke-linecap="round"/>
<path stroke-linejoin="round" d="m832.88 201.45c1.17-0.8 3.35-1.27 4.35-1.25 1.08 0.01 3.16 0.74 4.05 1.31" stroke-linecap="round"/>
</g>
<g stroke="#c13c1b" fill="none" transform="matrix(.97974 -.20028 .20028 .97974 24.17 168.42)">
<path d="m828.26 211.13c-0.14-7.45 4.89-18.97 9.06-26.23 3.81 7.34 8.61 19.12 8.58 26.12-0.06 13.47-17.41 12.79-17.64 0.11z"/>
<path d="m830.59 210.95c-0.1-5.52 3.6-14.05 6.69-19.43 2.8 5.44 6.34 14.16 6.32 19.35-0.04 9.97-12.84 9.47-13.01 0.08z"/>
<path stroke-linejoin="round" d="m830.64 210.69c0.94-0.86 3.27-2.46 6.4-2.46 3.14 0 4.91 1.13 6.31 2.35" stroke-linecap="round"/>
<path stroke-linejoin="round" d="m832.88 201.45c1.17-0.8 3.35-1.27 4.35-1.25 1.08 0.01 3.16 0.74 4.05 1.31" stroke-linecap="round"/>
</g>
<g stroke="#c13c1b" fill="none" transform="matrix(.92179 -.38769 .38769 .92179 75.062 326.92)">
<path d="m828.26 211.13c-0.14-7.45 4.89-18.97 9.06-26.23 3.81 7.34 8.61 19.12 8.58 26.12-0.06 13.47-17.41 12.79-17.64 0.11z"/>
<path d="m830.59 210.95c-0.1-5.52 3.6-14.05 6.69-19.43 2.8 5.44 6.34 14.16 6.32 19.35-0.04 9.97-12.84 9.47-13.01 0.08z"/>
<path stroke-linejoin="round" d="m830.64 210.69c0.94-0.86 3.27-2.46 6.4-2.46 3.14 0 4.91 1.13 6.31 2.35" stroke-linecap="round"/>
<path stroke-linejoin="round" d="m832.88 201.45c1.17-0.8 3.35-1.27 4.35-1.25 1.08 0.01 3.16 0.74 4.05 1.31" stroke-linecap="round"/>
</g>
<g stroke="#c13c1b" fill="none" transform="translate(7.5 .17857)">
<path d="m828.26 211.13c-0.14-7.45 4.89-18.97 9.06-26.23 3.81 7.34 8.61 19.12 8.58 26.12-0.06 13.47-17.41 12.79-17.64 0.11z"/>
<path d="m830.59 210.95c-0.1-5.52 3.6-14.05 6.69-19.43 2.8 5.44 6.34 14.16 6.32 19.35-0.04 9.97-12.84 9.47-13.01 0.08z"/>
<path stroke-linejoin="round" d="m830.64 210.69c0.94-0.86 3.27-2.46 6.4-2.46 3.14 0 4.91 1.13 6.31 2.35" stroke-linecap="round"/>
<path stroke-linejoin="round" d="m832.88 201.45c1.17-0.8 3.35-1.27 4.35-1.25 1.08 0.01 3.16 0.74 4.05 1.31" stroke-linecap="round"/>
</g>
<g stroke="#c13c1b" fill="none" transform="matrix(.99923 .039348 -.039348 .99923 -3.8684 -32.602)">
<path d="m828.26 211.13c-0.14-7.45 4.89-18.97 9.06-26.23 3.81 7.34 8.61 19.12 8.58 26.12-0.06 13.47-17.41 12.79-17.64 0.11z"/>
<path d="m830.59 210.95c-0.1-5.52 3.6-14.05 6.69-19.43 2.8 5.44 6.34 14.16 6.32 19.35-0.04 9.97-12.84 9.47-13.01 0.08z"/>
<path stroke-linejoin="round" d="m830.64 210.69c0.94-0.86 3.27-2.46 6.4-2.46 3.14 0 4.91 1.13 6.31 2.35" stroke-linecap="round"/>
<path stroke-linejoin="round" d="m832.88 201.45c1.17-0.8 3.35-1.27 4.35-1.25 1.08 0.01 3.16 0.74 4.05 1.31" stroke-linecap="round"/>
</g>
<g transform="translate(28.689,1.2477e-6)">
<g stroke="#c13c1b" fill="none" transform="matrix(.99372 -.11193 .11193 .99372 -18.341 94.097)">
<path d="m828.26 211.13c-0.14-7.45 4.89-18.97 9.06-26.23 3.81 7.34 8.61 19.12 8.58 26.12-0.06 13.47-17.41 12.79-17.64 0.11z"/>
<path d="m830.59 210.95c-0.1-5.52 3.6-14.05 6.69-19.43 2.8 5.44 6.34 14.16 6.32 19.35-0.04 9.97-12.84 9.47-13.01 0.08z"/>
<path stroke-linejoin="round" d="m830.64 210.69c0.94-0.86 3.27-2.46 6.4-2.46 3.14 0 4.91 1.13 6.31 2.35" stroke-linecap="round"/>
<path stroke-linejoin="round" d="m832.88 201.45c1.17-0.8 3.35-1.27 4.35-1.25 1.08 0.01 3.16 0.74 4.05 1.31" stroke-linecap="round"/>
</g>
</g>
<g stroke="#c13c1b" fill="none" transform="matrix(.54997 .83518 -.83518 .54997 397.51 -670.4)">
<path d="m828.26 211.13c-0.14-7.45 4.89-18.97 9.06-26.23 3.81 7.34 8.61 19.12 8.58 26.12-0.06 13.47-17.41 12.79-17.64 0.11z"/>
<path d="m830.59 210.95c-0.1-5.52 3.6-14.05 6.69-19.43 2.8 5.44 6.34 14.16 6.32 19.35-0.04 9.97-12.84 9.47-13.01 0.08z"/>
<path stroke-linejoin="round" d="m830.64 210.69c0.94-0.86 3.27-2.46 6.4-2.46 3.14 0 4.91 1.13 6.31 2.35" stroke-linecap="round"/>
<path stroke-linejoin="round" d="m832.88 201.45c1.17-0.8 3.35-1.27 4.35-1.25 1.08 0.01 3.16 0.74 4.05 1.31" stroke-linecap="round"/>
</g>
<g stroke="#c13c1b" fill="none" transform="matrix(.46539 .88511 -.88511 .46539 468.44 -711.35)">
<path d="m828.26 211.13c-0.14-7.45 4.89-18.97 9.06-26.23 3.81 7.34 8.61 19.12 8.58 26.12-0.06 13.47-17.41 12.79-17.64 0.11z"/>
<path d="m830.59 210.95c-0.1-5.52 3.6-14.05 6.69-19.43 2.8 5.44 6.34 14.16 6.32 19.35-0.04 9.97-12.84 9.47-13.01 0.08z"/>
<path stroke-linejoin="round" d="m830.64 210.69c0.94-0.86 3.27-2.46 6.4-2.46 3.14 0 4.91 1.13 6.31 2.35" stroke-linecap="round"/>
<path stroke-linejoin="round" d="m832.88 201.45c1.17-0.8 3.35-1.27 4.35-1.25 1.08 0.01 3.16 0.74 4.05 1.31" stroke-linecap="round"/>
</g>
<g stroke="#c13c1b" fill="none" transform="matrix(.66757 .74454 -.74454 .66757 292.75 -603.35)">
<path d="m828.26 211.13c-0.14-7.45 4.89-18.97 9.06-26.23 3.81 7.34 8.61 19.12 8.58 26.12-0.06 13.47-17.41 12.79-17.64 0.11z"/>
<path d="m830.59 210.95c-0.1-5.52 3.6-14.05 6.69-19.43 2.8 5.44 6.34 14.16 6.32 19.35-0.04 9.97-12.84 9.47-13.01 0.08z"/>
<path stroke-linejoin="round" d="m830.64 210.69c0.94-0.86 3.27-2.46 6.4-2.46 3.14 0 4.91 1.13 6.31 2.35" stroke-linecap="round"/>
<path stroke-linejoin="round" d="m832.88 201.45c1.17-0.8 3.35-1.27 4.35-1.25 1.08 0.01 3.16 0.74 4.05 1.31" stroke-linecap="round"/>
</g>
<g stroke="#c13c1b" fill="none" transform="matrix(.26219 .96502 -.96502 .26219 639.39 -772.53)">
<path d="m828.26 211.13c-0.14-7.45 4.89-18.97 9.06-26.23 3.81 7.34 8.61 19.12 8.58 26.12-0.06 13.47-17.41 12.79-17.64 0.11z"/>
<path d="m830.59 210.95c-0.1-5.52 3.6-14.05 6.69-19.43 2.8 5.44 6.34 14.16 6.32 19.35-0.04 9.97-12.84 9.47-13.01 0.08z"/>
<path stroke-linejoin="round" d="m830.64 210.69c0.94-0.86 3.27-2.46 6.4-2.46 3.14 0 4.91 1.13 6.31 2.35" stroke-linecap="round"/>
<path stroke-linejoin="round" d="m832.88 201.45c1.17-0.8 3.35-1.27 4.35-1.25 1.08 0.01 3.16 0.74 4.05 1.31" stroke-linecap="round"/>
</g>
<g stroke="#c13c1b" fill="none" transform="matrix(.22011 .97547 -.97547 .22011 671.49 -791.95)">
<path d="m828.26 211.13c-0.14-7.45 4.89-18.97 9.06-26.23 3.81 7.34 8.61 19.12 8.58 26.12-0.06 13.47-17.41 12.79-17.64 0.11z"/>
<path d="m830.59 210.95c-0.1-5.52 3.6-14.05 6.69-19.43 2.8 5.44 6.34 14.16 6.32 19.35-0.04 9.97-12.84 9.47-13.01 0.08z"/>
<path stroke-linejoin="round" d="m830.64 210.69c0.94-0.86 3.27-2.46 6.4-2.46 3.14 0 4.91 1.13 6.31 2.35" stroke-linecap="round"/>
<path stroke-linejoin="round" d="m832.88 201.45c1.17-0.8 3.35-1.27 4.35-1.25 1.08 0.01 3.16 0.74 4.05 1.31" stroke-linecap="round"/>
</g>
<g stroke="#c13c1b" fill="none" transform="matrix(.35291 .93566 -.93566 .35291 564.21 -747.82)">
<path d="m828.26 211.13c-0.14-7.45 4.89-18.97 9.06-26.23 3.81 7.34 8.61 19.12 8.58 26.12-0.06 13.47-17.41 12.79-17.64 0.11z"/>
<path d="m830.59 210.95c-0.1-5.52 3.6-14.05 6.69-19.43 2.8 5.44 6.34 14.16 6.32 19.35-0.04 9.97-12.84 9.47-13.01 0.08z"/>
<path stroke-linejoin="round" d="m830.64 210.69c0.94-0.86 3.27-2.46 6.4-2.46 3.14 0 4.91 1.13 6.31 2.35" stroke-linecap="round"/>
<path stroke-linejoin="round" d="m832.88 201.45c1.17-0.8 3.35-1.27 4.35-1.25 1.08 0.01 3.16 0.74 4.05 1.31" stroke-linecap="round"/>
</g>
<g stroke="#c13c1b" fill="none" transform="matrix(.85198 .52357 -.52357 .85198 123.72 -431.7)">
<path d="m828.26 211.13c-0.14-7.45 4.89-18.97 9.06-26.23 3.81 7.34 8.61 19.12 8.58 26.12-0.06 13.47-17.41 12.79-17.64 0.11z"/>
<path d="m830.59 210.95c-0.1-5.52 3.6-14.05 6.69-19.43 2.8 5.44 6.34 14.16 6.32 19.35-0.04 9.97-12.84 9.47-13.01 0.08z"/>
<path stroke-linejoin="round" d="m830.64 210.69c0.94-0.86 3.27-2.46 6.4-2.46 3.14 0 4.91 1.13 6.31 2.35" stroke-linecap="round"/>
<path stroke-linejoin="round" d="m832.88 201.45c1.17-0.8 3.35-1.27 4.35-1.25 1.08 0.01 3.16 0.74 4.05 1.31" stroke-linecap="round"/>
</g>
<g stroke="#c13c1b" fill="none" transform="matrix(.75557 .65507 -.65507 .75557 215.08 -533.04)">
<path d="m828.26 211.13c-0.14-7.45 4.89-18.97 9.06-26.23 3.81 7.34 8.61 19.12 8.58 26.12-0.06 13.47-17.41 12.79-17.64 0.11z"/>
<path d="m830.59 210.95c-0.1-5.52 3.6-14.05 6.69-19.43 2.8 5.44 6.34 14.16 6.32 19.35-0.04 9.97-12.84 9.47-13.01 0.08z"/>
<path stroke-linejoin="round" d="m830.64 210.69c0.94-0.86 3.27-2.46 6.4-2.46 3.14 0 4.91 1.13 6.31 2.35" stroke-linecap="round"/>
<path stroke-linejoin="round" d="m832.88 201.45c1.17-0.8 3.35-1.27 4.35-1.25 1.08 0.01 3.16 0.74 4.05 1.31" stroke-linecap="round"/>
</g>
<g stroke="#c13c1b" fill="none" transform="matrix(.90367 .42823 -.42823 .90367 78.688 -353.62)">
<path d="m828.26 211.13c-0.14-7.45 4.89-18.97 9.06-26.23 3.81 7.34 8.61 19.12 8.58 26.12-0.06 13.47-17.41 12.79-17.64 0.11z"/>
<path d="m830.59 210.95c-0.1-5.52 3.6-14.05 6.69-19.43 2.8 5.44 6.34 14.16 6.32 19.35-0.04 9.97-12.84 9.47-13.01 0.08z"/>
<path stroke-linejoin="round" d="m830.64 210.69c0.94-0.86 3.27-2.46 6.4-2.46 3.14 0 4.91 1.13 6.31 2.35" stroke-linecap="round"/>
<path stroke-linejoin="round" d="m832.88 201.45c1.17-0.8 3.35-1.27 4.35-1.25 1.08 0.01 3.16 0.74 4.05 1.31" stroke-linecap="round"/>
</g>
<g stroke="#c13c1b" fill="none" transform="matrix(.97812 .20804 -.20804 .97812 9.1988 -173.48)">
<path d="m828.26 211.13c-0.14-7.45 4.89-18.97 9.06-26.23 3.81 7.34 8.61 19.12 8.58 26.12-0.06 13.47-17.41 12.79-17.64 0.11z"/>
<path d="m830.59 210.95c-0.1-5.52 3.6-14.05 6.69-19.43 2.8 5.44 6.34 14.16 6.32 19.35-0.04 9.97-12.84 9.47-13.01 0.08z"/>
<path stroke-linejoin="round" d="m830.64 210.69c0.94-0.86 3.27-2.46 6.4-2.46 3.14 0 4.91 1.13 6.31 2.35" stroke-linecap="round"/>
<path stroke-linejoin="round" d="m832.88 201.45c1.17-0.8 3.35-1.27 4.35-1.25 1.08 0.01 3.16 0.74 4.05 1.31" stroke-linecap="round"/>
</g>
<g stroke="#c13c1b" fill="none" transform="matrix(.95308 .30271 -.30271 .95308 30.391 -252.17)">
<path d="m828.26 211.13c-0.14-7.45 4.89-18.97 9.06-26.23 3.81 7.34 8.61 19.12 8.58 26.12-0.06 13.47-17.41 12.79-17.64 0.11z"/>
<path d="m830.59 210.95c-0.1-5.52 3.6-14.05 6.69-19.43 2.8 5.44 6.34 14.16 6.32 19.35-0.04 9.97-12.84 9.47-13.01 0.08z"/>
<path stroke-linejoin="round" d="m830.64 210.69c0.94-0.86 3.27-2.46 6.4-2.46 3.14 0 4.91 1.13 6.31 2.35" stroke-linecap="round"/>
<path stroke-linejoin="round" d="m832.88 201.45c1.17-0.8 3.35-1.27 4.35-1.25 1.08 0.01 3.16 0.74 4.05 1.31" stroke-linecap="round"/>
</g>
<g stroke="#c13c1b" fill="none" transform="matrix(.99469 .10296 -.10296 .99469 -7.0933 -86.312)">
<path d="m828.26 211.13c-0.14-7.45 4.89-18.97 9.06-26.23 3.81 7.34 8.61 19.12 8.58 26.12-0.06 13.47-17.41 12.79-17.64 0.11z"/>
<path d="m830.59 210.95c-0.1-5.52 3.6-14.05 6.69-19.43 2.8 5.44 6.34 14.16 6.32 19.35-0.04 9.97-12.84 9.47-13.01 0.08z"/>
<path stroke-linejoin="round" d="m830.64 210.69c0.94-0.86 3.27-2.46 6.4-2.46 3.14 0 4.91 1.13 6.31 2.35" stroke-linecap="round"/>
<path stroke-linejoin="round" d="m832.88 201.45c1.17-0.8 3.35-1.27 4.35-1.25 1.08 0.01 3.16 0.74 4.05 1.31" stroke-linecap="round"/>
</g>
<g stroke="#c13c1b" fill="none" transform="matrix(.81909 -.57367 .57367 .81909 160.12 485.8)">
<path d="m828.26 211.13c-0.14-7.45 4.89-18.97 9.06-26.23 3.81 7.34 8.61 19.12 8.58 26.12-0.06 13.47-17.41 12.79-17.64 0.11z"/>
<path d="m830.59 210.95c-0.1-5.52 3.6-14.05 6.69-19.43 2.8 5.44 6.34 14.16 6.32 19.35-0.04 9.97-12.84 9.47-13.01 0.08z"/>
<path stroke-linejoin="round" d="m830.64 210.69c0.94-0.86 3.27-2.46 6.4-2.46 3.14 0 4.91 1.13 6.31 2.35" stroke-linecap="round"/>
<path stroke-linejoin="round" d="m832.88 201.45c1.17-0.8 3.35-1.27 4.35-1.25 1.08 0.01 3.16 0.74 4.05 1.31" stroke-linecap="round"/>
</g>
<g stroke="#c13c1b" fill="none" transform="matrix(.86567 -.50061 .50061 .86567 118.25 425.09)">
<path d="m828.26 211.13c-0.14-7.45 4.89-18.97 9.06-26.23 3.81 7.34 8.61 19.12 8.58 26.12-0.06 13.47-17.41 12.79-17.64 0.11z"/>
<path d="m830.59 210.95c-0.1-5.52 3.6-14.05 6.69-19.43 2.8 5.44 6.34 14.16 6.32 19.35-0.04 9.97-12.84 9.47-13.01 0.08z"/>
<path stroke-linejoin="round" d="m830.64 210.69c0.94-0.86 3.27-2.46 6.4-2.46 3.14 0 4.91 1.13 6.31 2.35" stroke-linecap="round"/>
<path stroke-linejoin="round" d="m832.88 201.45c1.17-0.8 3.35-1.27 4.35-1.25 1.08 0.01 3.16 0.74 4.05 1.31" stroke-linecap="round"/>
</g>
<g transform="matrix(.35065 -.9365 .9365 .35065 483 874.58)">
<g stroke="#c13c1b" fill="none" transform="matrix(.90018 .43551 -.43551 .90018 177.89 -334.07)">
<path d="m828.26 211.13c-0.14-7.45 4.89-18.97 9.06-26.23 3.81 7.34 8.61 19.12 8.58 26.12-0.06 13.47-17.41 12.79-17.64 0.11z"/>
<path d="m830.59 210.95c-0.1-5.52 3.6-14.05 6.69-19.43 2.8 5.44 6.34 14.16 6.32 19.35-0.04 9.97-12.84 9.47-13.01 0.08z"/>
<path stroke-linejoin="round" d="m830.64 210.69c0.94-0.86 3.27-2.46 6.4-2.46 3.14 0 4.91 1.13 6.31 2.35" stroke-linecap="round"/>
<path stroke-linejoin="round" d="m832.88 201.45c1.17-0.8 3.35-1.27 4.35-1.25 1.08 0.01 3.16 0.74 4.05 1.31" stroke-linecap="round"/>
</g>
</g>
<g stroke="#c13c1b" fill="none" transform="matrix(.50775 -.8615 .8615 .50775 405.84 748.49)">
<path d="m828.26 211.13c-0.14-7.45 4.89-18.97 9.06-26.23 3.81 7.34 8.61 19.12 8.58 26.12-0.06 13.47-17.41 12.79-17.64 0.11z"/>
<path d="m830.59 210.95c-0.1-5.52 3.6-14.05 6.69-19.43 2.8 5.44 6.34 14.16 6.32 19.35-0.04 9.97-12.84 9.47-13.01 0.08z"/>
<path stroke-linejoin="round" d="m830.64 210.69c0.94-0.86 3.27-2.46 6.4-2.46 3.14 0 4.91 1.13 6.31 2.35" stroke-linecap="round"/>
<path stroke-linejoin="round" d="m832.88 201.45c1.17-0.8 3.35-1.27 4.35-1.25 1.08 0.01 3.16 0.74 4.05 1.31" stroke-linecap="round"/>
</g>
<g stroke="#c13c1b" fill="none" transform="matrix(.62819 -.77806 .77806 .62819 309.3 669.9)">
<path d="m828.26 211.13c-0.14-7.45 4.89-18.97 9.06-26.23 3.81 7.34 8.61 19.12 8.58 26.12-0.06 13.47-17.41 12.79-17.64 0.11z"/>
<path d="m830.59 210.95c-0.1-5.52 3.6-14.05 6.69-19.43 2.8 5.44 6.34 14.16 6.32 19.35-0.04 9.97-12.84 9.47-13.01 0.08z"/>
<path stroke-linejoin="round" d="m830.64 210.69c0.94-0.86 3.27-2.46 6.4-2.46 3.14 0 4.91 1.13 6.31 2.35" stroke-linecap="round"/>
<path stroke-linejoin="round" d="m832.88 201.45c1.17-0.8 3.35-1.27 4.35-1.25 1.08 0.01 3.16 0.74 4.05 1.31" stroke-linecap="round"/>
</g>
<g stroke="#c13c1b" fill="none" transform="matrix(.4697 -.88283 .88283 .4697 444.26 756.91)">
<path d="m828.26 211.13c-0.14-7.45 4.89-18.97 9.06-26.23 3.81 7.34 8.61 19.12 8.58 26.12-0.06 13.47-17.41 12.79-17.64 0.11z"/>
<path d="m830.59 210.95c-0.1-5.52 3.6-14.05 6.69-19.43 2.8 5.44 6.34 14.16 6.32 19.35-0.04 9.97-12.84 9.47-13.01 0.08z"/>
<path stroke-linejoin="round" d="m830.64 210.69c0.94-0.86 3.27-2.46 6.4-2.46 3.14 0 4.91 1.13 6.31 2.35" stroke-linecap="round"/>
<path stroke-linejoin="round" d="m832.88 201.45c1.17-0.8 3.35-1.27 4.35-1.25 1.08 0.01 3.16 0.74 4.05 1.31" stroke-linecap="round"/>
</g>
<g stroke="#c13c1b" fill="none" transform="matrix(.30775 -.95147 .95147 .30775 580.83 811.22)">
<path d="m828.26 211.13c-0.14-7.45 4.89-18.97 9.06-26.23 3.81 7.34 8.61 19.12 8.58 26.12-0.06 13.47-17.41 12.79-17.64 0.11z"/>
<path d="m830.59 210.95c-0.1-5.52 3.6-14.05 6.69-19.43 2.8 5.44 6.34 14.16 6.32 19.35-0.04 9.97-12.84 9.47-13.01 0.08z"/>
<path stroke-linejoin="round" d="m830.64 210.69c0.94-0.86 3.27-2.46 6.4-2.46 3.14 0 4.91 1.13 6.31 2.35" stroke-linecap="round"/>
<path stroke-linejoin="round" d="m832.88 201.45c1.17-0.8 3.35-1.27 4.35-1.25 1.08 0.01 3.16 0.74 4.05 1.31" stroke-linecap="round"/>
</g>
<g stroke="#c13c1b" fill="none" transform="matrix(.38281 -.92383 .92383 .38281 517.43 791.04)">
<path d="m828.26 211.13c-0.14-7.45 4.89-18.97 9.06-26.23 3.81 7.34 8.61 19.12 8.58 26.12-0.06 13.47-17.41 12.79-17.64 0.11z"/>
<path d="m830.59 210.95c-0.1-5.52 3.6-14.05 6.69-19.43 2.8 5.44 6.34 14.16 6.32 19.35-0.04 9.97-12.84 9.47-13.01 0.08z"/>
<path stroke-linejoin="round" d="m830.64 210.69c0.94-0.86 3.27-2.46 6.4-2.46 3.14 0 4.91 1.13 6.31 2.35" stroke-linecap="round"/>
<path stroke-linejoin="round" d="m832.88 201.45c1.17-0.8 3.35-1.27 4.35-1.25 1.08 0.01 3.16 0.74 4.05 1.31" stroke-linecap="round"/>
</g>
<g stroke="#c13c1b" fill="none" transform="matrix(.20364 -.97905 .97905 .20364 667.61 836.72)">
<path d="m828.26 211.13c-0.14-7.45 4.89-18.97 9.06-26.23 3.81 7.34 8.61 19.12 8.58 26.12-0.06 13.47-17.41 12.79-17.64 0.11z"/>
<path d="m830.59 210.95c-0.1-5.52 3.6-14.05 6.69-19.43 2.8 5.44 6.34 14.16 6.32 19.35-0.04 9.97-12.84 9.47-13.01 0.08z"/>
<path stroke-linejoin="round" d="m830.64 210.69c0.94-0.86 3.27-2.46 6.4-2.46 3.14 0 4.91 1.13 6.31 2.35" stroke-linecap="round"/>
<path stroke-linejoin="round" d="m832.88 201.45c1.17-0.8 3.35-1.27 4.35-1.25 1.08 0.01 3.16 0.74 4.05 1.31" stroke-linecap="round"/>
</g>
</g>
</g>
<path d="m-2757.3-361.82c-8-0.59-14.4 0.36-19.7 4.38 5.4-1.03 12.4-1.5 19.2-0.39l0.5-3.99z" fill-rule="evenodd" stroke="#025" stroke-width=".20784px" fill="#025"/>
<g stroke-linejoin="round" fill-rule="evenodd" transform="matrix(-.050881 -.22471 .21164 -.046253 -2834.5 -768.99)" stroke="#000" stroke-linecap="round">
<path d="m-2306.3 184.52 161.9 20.4-6.5 78.15-159.3-16.65 3.9-81.9z" fill="#fac53a"/>
<path d="m-2306.7 192.99 162 20.69-2.5 23.87-160.6-19.55 1.1-25.01z" fill="#04a"/>
<path d="m-2309.1 229.73 161.2 19.26-2.1 23.86-160.2-18.37 1.1-24.75z" fill="#04a"/>
</g>
<g fill-rule="evenodd" stroke="#000" stroke-width=".25" transform="matrix(.59907 0 0 .59907 -3380.1 -530.32)">
<path d="m987.7 673.55c1.93 25.51 2.42 28.64-2.15 28.9-2.87 0.15-4.65-7.72-4.42-28.55" fill="#c13c1b"/>
<path d="m966.08 673.55c-1.93 25.51-2.42 28.64 2.15 28.9 2.88 0.15 4.65-7.72 4.43-28.55" fill="#c13c1b"/>
<path d="m981.47 673.79c0.38 11.81-1.42 26.15 5.71 35l-20.89-0.18c6.57-7.06 5.48-21.78 5.89-35" fill="#04a"/>
<g fill="#fff">
<path d="m976.8 673.72-0.44 29.07c-0.05 3.35-1.18 5.6-1.54 5.87h3.48c-0.54-0.31-1.15-2.48-1.15-5.87l-0.03-29.07h-0.32z"/>
<path d="m968.85 673.8-1.04 24.28c-0.04 0.61 0.23 1.4 0.49 0.53l0.86-24.8-0.31-0.01z"/>
<path d="m984.9 673.8 1.04 24.28c0.04 0.61-0.23 1.4-0.49 0.53l-0.86-24.8 0.31-0.01z"/>
</g>
</g>
<g transform="matrix(.16428 .10749 -.10749 .16428 -2860.6 -471.75)">
<g fill-rule="evenodd">
<path stroke-linejoin="round" d="m1525.2 1080.7-88.6-109.54-235 310.74 15.1 31.8 308.5-233z" stroke="#000" stroke-linecap="round" stroke-width="1px" fill="#fac53a"/>
<g stroke-width="1.1562px">
<path d="m1367.2 1103.8 21.5-25.3 15.4 13.3-22.6 24.1-14.3-12.1z" stroke="#04a" fill="#04a"/>
<path d="m1397.3 1068.3 19.5-23.1 18 15.4-21.1 21.7-16.4-14z" stroke="#c13c1b" fill="#c13c1b"/>
<path d="m1426 1035.6 22.2-26.4 19.1 16.3-24.1 25.2-17.2-15.1z" stroke="#04a" fill="#04a"/>
</g>
<path stroke-linejoin="round" d="m1436.4 970.71 10.7 13.49-233.7 286.1-11.5 10.6 234.5-310.19z" stroke="#000" stroke-linecap="round" stroke-width="1px" fill="#fff"/>
<g stroke-width="1.1562px">
<path d="m1247.4 1242.6 19.8-22.7 8.4 7.8-20.4 22.1-7.8-7.2z" stroke="#04a" fill="#04a"/>
<path d="m1277.1 1208.8 20.8-24.7 9.8 9.2-21.7 23.2-8.9-7.7z" stroke="#c13c1b" fill="#c13c1b"/>
<path d="m1306.7 1174.7 20.9-25.3 12.5 10.4-23.2 24.2-10.2-9.3z" stroke="#04a" fill="#04a"/>
</g>
<path d="m1336.8 1138.1 21.7-25.4 14.9 12.5-23.1 24.4-13.5-11.5z" fill="#308d57"/>
</g>
<g stroke-linejoin="round" stroke="#000" stroke-linecap="round" fill="none">
<path d="m1474.7 1019.1-226 238" stroke-width="1.1562px"/>
<path d="m1457.4 997.55-220.8 256.95" stroke-width="1.1562"/>
<g stroke-width="1.1562px">
<path d="m1422.7 1038.9 17.6 14.9"/>
<path d="m1419.6 1041.8 17.8 15.4"/>
<path d="m1453.8 1002.3 19.7 17.2"/>
<path d="m1451 1005.6 19.8 16.9"/>
<path d="m1394.6 1071.9 16.6 13.2"/>
<path d="m1391.5 1075.3 16.4 13.3"/>
<path d="m1364.5 1106.7 14.1 11.9"/>
<path d="m1361.3 1109.6 14.9 12.4"/>
<path d="m1333.1 1142.7 13.1 10.3"/>
<path d="m1330.5 1146 12.9 10.5"/>
<path d="m1303.8 1177.8 10 9.2"/>
<path d="m1300.8 1181.3 10.3 9"/>
<path d="m1274.4 1212 8.3 8.3"/>
<path d="m1270.9 1215.6 8.8 8.4"/>
<path d="m1244.7 1245.8 7.6 6.8"/>
<path d="m1241.9 1248.5 8 6.8"/>
</g>
</g>
<g fill-rule="evenodd">
<g stroke-width="1.1562px">
<path d="m1458.1 1074.1 25.1-23.8 17.2 18.4-26.8 22.4-15.5-17z" stroke="#04a" fill="#04a"/>
<path d="m1426 1103.4 22-20.8 16.3 16.9-23.6 19.6-14.7-15.7z" stroke="#c13c1b" fill="#c13c1b"/>
<path d="m1392.1 1135.2 24.2-22.7 13.8 15-25.2 21.3-12.8-13.6z" stroke="#04a" fill="#04a"/>
</g>
<path d="m1358 1165.9 24.4-22.8 13.4 14.1-25.7 21.6-12.1-12.9z" fill="#308d57"/>
<g stroke-width="1.1562px">
<path d="m1324 1198.9 23.6-22.8 11.2 11.8-25.9 21.8-8.9-10.8z" stroke="#04a" fill="#04a"/>
<path d="m1290.6 1229.1 23.5-21.9 8.8 10.3-24.2 20.6-8.1-9z" stroke="#c13c1b" fill="#c13c1b"/>
<path d="m1259 1258.9 21.3-19.4 7.4 7.9-22 18.8-6.7-7.3z" stroke="#04a" fill="#04a"/>
</g>
</g>
<g stroke="#000" fill="none">
<g stroke-linejoin="round" stroke-linecap="round">
<path d="m1509.5 1061.9-252.5 212.4" stroke-width="1.1562px"/>
<path d="m1492.5 1041.1-246.4 228.6" stroke-width="1.1562"/>
<g stroke-width="1.1562px">
<path d="m1454.6 1077 15.8 16.8"/>
<path d="m1451.1 1079.5 16 17.3"/>
<path d="m1489.5 1044 17.7 19.4"/>
<path d="m1486.4 1047.1 17.7 19"/>
<path d="m1422.9 1106.6 15 15"/>
<path d="m1419.4 1109.6 14.8 15.1"/>
<path d="m1389.1 1137.8 12.6 13.5"/>
<path d="m1385.6 1140.3 13.4 14"/>
<path d="m1353.8 1170 11.9 11.7"/>
<path d="m1350.9 1173 11.6 11.9"/>
<path d="m1320.8 1201.6 8.9 10.3"/>
<path d="m1317.4 1204.8 9.2 10.1"/>
<path d="m1287.3 1232.4 7.9 8.6"/>
<path d="m1283.8 1235.5 8.4 9.2"/>
<path d="m1256.6 1260.6 7.1 7.8"/>
<path d="m1254.3 1262.7 6.5 7.7"/>
</g>
</g>
<g stroke-width="1px">
<path d="m1252.5 1257.1 227.9-231.5"/>
<path d="m1254.3 1258.8 232.4-225.2"/>
<path d="m1258.8 1276.3 254.7-209.3"/>
<path d="m1256.1 1281.5 264.2-206.8"/>
<path d="m1223 1262.2 227.2-273.85"/>
<path d="m1230.3 1257.9 223.7-264.96"/>
</g>
</g>
<path stroke-linejoin="round" d="m1216.6 1314c28.8-24 54.4-32.9 37.4-54.9-12.4-16.1-38.6 8-52.7 22.1l15.3 32.8z" fill-rule="evenodd" stroke="#000" stroke-linecap="round" stroke-width="1px" fill="#fac53a"/>
</g>
<path d="m3214.1 1097.4c0 1.9-0.7 3.4-1.4 3.4-0.8 0-1.4-1.5-1.4-3.4 0-1.8 0.6-3.4 1.4-3.4 0.7 0 1.4 1.6 1.4 3.4z" fill-rule="evenodd" fill-opacity=".70588" transform="matrix(.56301 .00012581 .0042813 .57725 -4612.6 -774.44)"/>
<path stroke-linejoin="round" d="m-2857-248.64c-8.3 26.96-17.4 55.83-22.9 82.98-0.6 4.65 1.3 6.7 5.6 6.36 25.8-5.45 59.4-16.73 87-34.34l-8-19.94c-12.9 2.58-25.7 2.93-40.4 8.29 3.4-6.68 6.6-13.59 8.5-20.4l4.2-15.55" fill-rule="evenodd" stroke="#000" stroke-linecap="round" stroke-width=".41568" fill="#a13c2a"/>
<g stroke-linejoin="round" fill-rule="evenodd" transform="matrix(.26549 .035572 -.02938 .22906 -2241.1 -210.49)" stroke="#000" stroke-linecap="round">
<path d="m-2298.3 185.2 129.8 8.36-8.5 77.74-132.4-13.06 11.1-73.04z" fill="#fac53a"/>
<path d="m-2299.3 193.61 129.7 10.55-2.6 22.25-130.6-9.95 3.5-22.85z" fill="#04a"/>
<path d="m-2304.1 224.65 130.8 11.35-2.8 24.16-131.7-10.99 3.7-24.52z" fill="#04a"/>
</g>
<path d="m-2857.3-190.28c6.3-7.09 13.5-11.74 21.3-14.97" stroke="#000" stroke-width=".37018px" fill="none"/>
<g stroke-linejoin="round" fill-rule="evenodd" transform="matrix(.2354 .032029 .035349 -.21329 -2485 -140.84)" stroke="#000" stroke-linecap="round">
<g transform="translate(1592.3,738.29)">
<path d="m-2309.5 199.79 97.3 0.76-4.1 61.37-92.7-3.54-0.5-58.59z" fill="#fac53a"/>
<path d="m-2309.5 208.63 96.5 1.26-1 18.96-95.2-1.49-0.3-18.73z" fill="#04a"/>
</g>
<path d="m-719.32 937.33 101.56 1.26-5.19 61.51-94.99-3.42-1.38-59.35z" fill="#fac53a"/>
<path d="m-718.94 946.58 100.22 1.28-1.55 19.37-98.41-1.93-0.26-18.72z" fill="#04a"/>
<path d="m-718.55 971.44 97.64 1.54-1.62 18.96-95.76-1.78-0.26-18.72z" fill="#04a"/>
</g>
<path d="m-2930.2 26.28 7.8-0.446 0.4-0.893c-2.6-0.434-5.3-0.352-8.3 0.513l0.1 0.826z" fill-rule="evenodd" stroke="#000" stroke-width="0.1" fill="#fff"/>
<path d="m-2775 24.853 7.9 0.063 0.4-0.867c-2.6-0.604-5.3-0.697-8.3-0.023v0.827z" fill-rule="evenodd" stroke="#000" stroke-width="0.1" fill="#fff"/>
<g stroke-linejoin="round" fill-rule="evenodd" transform="matrix(1.1693 .096653 -.13324 .99582 311.67 238.23)" stroke="#000" stroke-linecap="round" stroke-width=".23041">
<path d="m-2550.1-382.89c0.3 2.98 1.7 4.45 2.9 4.21 0.6-0.13 1.3-0.2 1.6-2.1 0 2.4 1.4 3.55 2.7 3.45 1-0.06 1.8-0.15 1.8-3.64 0.6 2.6 1.7 3.18 2.6 3.24 1.2 0.1 2.2-1.34 2.2-3.57 0.3 1.58 1.3 2 2 2.06 1.2 0.1 2.2-1.48 2.2-4.81 0.8-6 1.3-12.54 1.7-18.88 0-0.11 0-0.23-0.1-0.34-1.2-1.22-3.3-1.63-4.9 1.3-1.6-2.37-4.5-2.22-5.2 0.68-2.1-2.15-3.8-1.78-5.2 0.48-2.3-2.35-3.8-2.1-5.1 0.52-0.1 0.26-0.1 0.48-0.1 0.66-0.5 6.73-0.1 12.24 0.9 16.61m0.2 0.96c0.7-1.06 2.7-1.32 4.2 0.16m0.2 0.98c0.4-1.59 3.5-1.18 4.4-0.17m0.1 0.39c0.2-1.93 3.8-2.83 4.6 0m0.1-0.68c0.7-1.62 2.8-1.82 4-1.01m-8.3-18.89c0.1 0.65-0.4 20.32-0.4 20.32m-4.8-19.7c0 1.09 0.2 19.94 0.2 19.94m10.2-21.19-0.9 20.73" fill="#a13c2a"/>
<path d="m-2545.5-380.92c-0.1-0.29 0.1-0.55-0.2-0.98-1.8-1.83-4-0.55-4.2-0.18 0.4 2.47 1.4 3.48 2.5 3.39 0.7-0.05 1.6-0.13 1.8-2.11 0 2.42 1.5 3.79 2.8 3.64 0.8-0.1 1.7-0.37 1.7-3.81 0.6 2.71 1.8 3.29 2.7 3.29 1.2 0.02 2.1-1.33 2-3.49 0.4 1.8 1.6 2.2 2.4 2.02 0.9-0.19 1.4-1.17 1.7-3.25-1.2-0.8-3.3-0.6-4 1.23-0.9-2.62-4.5-1.46-4.8 0.28-0.9-1.21-4-1.62-4.4-0.03z" fill="#fff"/>
</g>
<path d="m-2622.2-409.75 0.6-0.34c0.3-2.22 0.5-4.11 0.3-5.98l-0.7 0.06-0.2 6.26z" fill-rule="evenodd" stroke="#000" stroke-width="0.1" fill="#fff"/>
</g>
<path d="m179.9 147.01-2.5 10.34c5.2 6.61 25.2 3.22 28.4 1.61l-5.8-14.22 1.1-0.5c-1.4-0.59-4.8-0.36-6.2 0.79-2.8-0.53-4.8-0.69-7.5 0.68-2.2-1.08-6.7 0.04-7.5 1.3z" fill-rule="evenodd" stroke="#000" stroke-width=".20784px" fill="#a13c2a"/>
<use xlink:href="#b" transform="translate(339.43)" height="700" width="710" y="0" x="0"/>
<g transform="matrix(.20784 0 0 .20784 -317.5 67.12)">
<path d="m2372.4 322.62c-16.6-48.61-8.3-33.38-226.8-68.01l-7.5-5.07-3.1-4.85-1.5-9.04-1.1-8.59-4.4-5.52-7.7-3.52-8-6.4-1.7-2.86-17.2-41.45-2.4-1.04-2.5-0.31-2.8-3.27-0.8-2.96 0.7-2.19 1.7-0.78 5-0.93 16-2.34 24-3.74 21.2-5.14 18.4-4.37 25-4.68 17.7-3.11 21.2-3.12 21.2-3.43 14.4-2.49h15.9c40.5-24.383 71-26.855 107.8-35.233 12.6-67.353 22.9-135.14 40.9-201.4 12.2-56.3 24.7-111.82 38-164.61 7-15.37 14.3-18.06 22.5 0.62 19.2 85.84 26.6 142.66 28.6 201.09 0.8 20.353 2.6 63.589-3 85.386 10.7-23.071 11.3-70.53 13.8-93.497 9.8-88.649 23.1-137.33 34.5-198.28 3.1-12.95 7.5-15.58 14-0.31 27.7 96.03 54.6 192.19 68.5 290.53 0.3 47.964-9.3 87.274-36 111.77-10.2 3.21-17.9 13.45-33.5 1.54l-1.5-1.99-1.8 1.55-1.3 5.07-0.2 2.86 6.6 5.52c51.7 59.02 67.2 114.85 79.6 170.4l0.8 1.75 1.1 40.47c-29.2 1.41-251.7 46.22-282.7 30.57l-11.6-54.6z" fill-rule="evenodd" stroke="#818181"/>
<g stroke-width=".87294px">
<path d="m2579-256.61-4.8 16.75-3.6 29.98-3.9 39.68-2.7 28.22-0.4 27.78-0.9 22.925-0.4 23.809-1.4 25.131 1.4 22.927 3 25.131 6.7 18.518 7 20.281 6.6 16.755 8.8 16.313 10.6 6.613 13.2-0.881 6.7-7.055 7-14.99 4-14.55 1.3-23.368-1.3-19.84-2.2-18.959-3.1-20.281-4.9-21.604-5.7-26.895-6.2-35.71-5.3-22.05-6.1-25.13-8-26.45-7.5-29.54-7.9-33.51z" fill-rule="evenodd" stroke="#fff" fill="#f2f2f2"/>
<g stroke="#000" fill="none">
<path d="m2585.8-222.44c-3.5 27.59-7.7 55.1-10.9 82.74-4.5 42.127-4.7 84.536-5.6 126.85-0.3 7.5862-0.6 15.181-1.1 22.762"/>
<path d="m2596.6-183.86c-2.9 15.29-5.6 30.63-6.2 46.22-1.2 19.31-3.7 38.499-4.2 57.845-1.8 31.889-7.5 63.44-8.5 95.395-0.2 5.931-1.2 11.787-1.8 17.679"/>
<path d="m2607.4-143.74c-3.3 13.73-5.4 27.67-7.3 41.67-2.6 15.437-5.1 30.873-6.7 46.451-3 26.034-6.9 51.978-9 78.107-0.7 9.681-1 19.39-1.4 29.089"/>
<path d="m2615.6-101.2c-3.9 15.876-7.2 31.853-9.5 48.032-4.2 26.392-5.2 53.299-11.7 79.314-2.9 12.697-4.7 25.498-6.1 38.438"/>
<path d="m2621.3-72.316c-5.3 20.038-7.4 40.747-10.8 61.174-2.5 17.467-5.7 34.856-10.4 51.877-1.3 10.886-2.9 21.773-6.3 32.226"/>
<path d="m2628.4-42.335c-5.5 16.306-6 33.73-10.6 50.271-2.9 16.304-7.4 32.26-12.3 48.05-1.9 8.059-3.8 16.113-5.3 24.25"/>
<path d="m2632.4-12.574c-4.2 9.1406-3.7 19.409-5.8 29.082-2 10.054-5.1 19.904-7.6 29.862-3.3 12.065-7 24.044-9.6 36.29"/>
<path d="m2635.4 24.682c-1.9 14.189-3.1 28.805-9.2 41.943l-5.1 12.288"/>
</g>
<path d="m2132.3 224.42 12.8 1.56 10.9 0.31h20.3l37.4-0.31h37.4l8.1 0.31" stroke="#818181" fill="none"/>
<g stroke-linejoin="round" fill-rule="evenodd" stroke-linecap="round">
<path d="m2316.8 119.68c10.8-8.82 36.3-20.17 48.2-18.55 7.1 0.98 27.5 9.72 48.4 14.12 14.6 3.06 26.6 4.94 38.8 5.21 1.3 2.24 0.7 4.47 0.4 6.71-13.1 0.12-24.6-0.15-44.5-4.06-14.4-3.39-28.8-11.29-47.5-12.78-7.4-1.63-20.9 2.36-41.2 12.78-2.2-0.21-4-0.75-2.6-3.43z" fill="#fff" stroke="#fff"/>
<path d="m2319.3 158.19c14.5-28.08 25.3-32.3 35.7-29.78 0 0 50.2 10.29 55.5 10.91 5.9 0.7 35.8 0.94 35.8 0.94 0.8 3.22 1.4 6.44-0.3 9.66-12.9 1.31-31.8 1.28-52.1 0.94-4.8 3.55-10.5 6.41-18.7 7.48-14.5 0.52-30.7 0.42-48.6-0.31-0.4 0.18-2.1 0.46-3.7 1.87-3.2 0.71-4.7 0.34-3.6-1.71z" fill="#fff" stroke="#000"/>
<path d="m2355.4 156.62c-10-1.4-17.3-3.77-17.7-13.84-0.4-10.23 2.2-15.13 12-15.61l26.8 5.47c0 9.97-1.9 14.02-4.1 17.22-3 3.41-4.5 7.47-17 6.76z" stroke="#000"/>
</g>
</g>
</g>
<path stroke-linejoin="round" d="m229.8 87.66c-1.3 2.25-5.8 8.25-10.9 4.02l-0.8 1.66c6.8 12.94-0.4 23.56-23.1 28.19 4.8 12.5 3.6 20.7 4.2 31.77 1.1 21.97 1.4 56.08 1.4 56.08h24.5c0.3-18.48-0.5-49.55 0.8-61.84 0.3-2.43-0.1-2.12 0.3-2.79l23.1 4.9c10.2-3.38 18.2-3.86 25.3-3.02-6.2-29.65-29.7-50.78-44.8-58.97z" fill-rule="evenodd" stroke="#000" stroke-linecap="round" stroke-width=".20784px" fill="#025"/>
<use xlink:href="#a" transform="translate(39.971)" height="700" width="710" y="0" x="0"/>
<g fill-rule="evenodd" transform="translate(2958.6,442.63)">
<path stroke-linejoin="round" d="m-2788.1-315.84c-12.3 30.57-9.7 49.17-9.6 82.59h24.1l-0.2-48.59c-4.1-11.87-6-30.94-14.3-34z" stroke="#000" stroke-linecap="round" stroke-width=".20784px" fill="#025"/>
<path stroke-linejoin="round" d="m-2464.1-330.75c5.8 17.07 12.1 29.27 20.3 43.47 3.7 2.28 7.8 2.61 12.3 2.91l35.9-29.69-19.8-46.83-25.1 1.45-17.8 7.78-4.8 3.74-2.1 5.82-6.2 8.76 0.7 0.56c1.3 2.12 4 2.26 6.6 2.03z" stroke="#000" stroke-linecap="round" stroke-width=".36749" fill="#fff"/>
<path d="m-2451.9-353.96 2.6 2.06 37 15.39 2-8.72c-15.2-18.51-32.3-12.44-41.6-8.73z" fill="#c13c1b"/>
<g stroke="#000">
<path d="m-2451.5-292.31 5.5 4.6c4.5 3.27 12.1 6.5 19.6 4.7l-5.8-14.45 1-0.65c-1.4-0.38-4.7 0.34-6 1.68-2.8-0.12-4.8 0.03-7.1 1.75-2.4-0.73-6.6 1.01-7.2 2.37z" stroke-width=".20541px" fill="#a13c2a"/>
<path stroke-linejoin="round" d="m-2403.5-299.51 33.8 6.58c9.9-3.4 17.1-3.49 25.1-3.54-9.4-42.9-34.1-63.9-70-66.56-10.6 0.22-27.1-0.49-45.2 10.96-1.9 1.24-2.2 5.73 1.8 3.13 22.6-16.1 45-6.49 49 11.95 2.7 12.28-3.1 25.04-27.3 27.43-1.5 0.21-1.8 0.77-0.6 2.64 7 8.85 8.4 27.11 8.9 39.03 0.5 20.68 0.7 33.83 0.7 33.83h26c0.2-11.23 0.1-19.05 0.1-32.96-0.9-11.44-0.7-23.62-2.3-32.49z" stroke-linecap="round" stroke-width=".21833px" fill="#025"/>
<path stroke-linejoin="round" d="m-2471.4-327.8c0 0.28-0.3 0.27-0.4 0.14-2.4-6.4 2.1-12.61 6.3-16.48 0.6 0.04 2.8 0.35 3.2 1.03 2.1 5.98 7.3 7.09 9.8 7.82 1.4 0.69 1.4 3.05-0.2 3.36-2.9-1.52-7.8-4.03-12.7-1-5.8-4.28-7.2 2.91-6 5.13z" stroke-linecap="round" stroke-width=".20382" fill="#04a"/>
</g>
</g>
<path stroke-linejoin="round" d="m487.9 110c1.1 2.04 5.5 2.48 7.8 1.52" stroke="#000" stroke-linecap="round" stroke-width=".20382" fill="none"/>
<g fill-rule="evenodd" transform="translate(2958.6,442.63)">
<path d="m-2457.1-340.34c0.8-8.74 6.4-10.72 9-11.31 6.4-1.35 11.3 0.32 14.1 5.65-2.6 3.82-4.3 8.82-10.4 10.3-3.7-0.23-7.8-0.53-11.9-2.44" fill="#f5ca44"/>
<g stroke-linejoin="round" stroke-linecap="round" stroke="#000">
<path d="m-2456.3-340.41c-0.2 0.56-0.7 0.39-0.8 0.06-0.6-4.29 2.7-12.86 12.4-13.22 3.1 0.02 8.9 2.21 11.7 4.77-1.6-3.57-7.9-5.53-8.5-6.51 2.5 0.08 8.2 2.63 11.6 5.21 1.4 1.08 1.5 1.06 1.3 0.29-1-2.46-4-4.77-6.8-6.62 2.8 0.23 8.4 4.39 12 8.19-0.4-1.93-3.4-4.66-5.1-7.01 2.6 0.93 7 5.62 9.6 9.81-0.3-2.16-1.8-4.81-2.7-7.21 1.8 1.76 3.9 5.88 5.4 10.12 0.3-1.67-0.8-4.9-1.4-7.56 1.8 3 3.4 6.61 3.9 11.15 0.5-2.57-0.2-4.63-0.5-6.84 1.8 2.97 2.3 6.03 1.9 9.15-1.8 15.8-13.8 20.76-28.4 23.01-0.9 0.04-1.4-0.67-0.8-0.82 25.1-4.29 26.1-21.44 19-24.39-2.2-0.89-6.8-1.85-11.1-0.38-2.7 0.92-6 2.25-7.8 6.25-1.5 3.39-1.5 5.86-1.5 7.86-0.2 2.9 0.5 5.45-1.2 10.31-0.8 2.3-3.7 1.87-4 0.23-0.7-5.41-0.4-11.45-2.8-14.32-0.6-0.76-0.5-1.68 0.2-2.8 0.6-0.88 1.4-2.65 0.3-3.92-0.9-1-2.3-1.4-4.1-1.67-3.1-0.47-1.9-2.49 0.5-2.09 3.2 2.23 7.2 2.5 10 1.76 5.3-1.42 7.2-6.36 6.2-9.84-0.6-2.49-3.2-4.21-7.3-4.15-2.9-0.07-5.2 1.1-6.9 2.5-2.7 2.33-4.1 6.1-4.3 8.68z" stroke-width=".12229" fill="#025"/>
<g stroke-width=".20382">
<path d="m-2452.4-343.13c0.3-3.88 2-6.07 4.5-7 4.3-1.66 6.8 1.04 7.7 3.58 1.2 3.34-1.4 5.96-3.7 6.59-3.6 0.96-6.6 0.06-8-1.81" fill="#fac53a"/>
<path d="m-2452.8-341.86c0.1-0.76 1.1-1.06 1.1-1.28 0.3-3.5 1.8-5.43 4.1-6.33 2.9-1.16 5.2-0.05 6.5 2.92 1 2.37-0.3 4.78-3.2 5.81-2.7 0.96-5-0.06-7.2-1.64-0.1-0.07-0.5 0.56-1.3 0.52z" fill="#025"/>
<path d="m-2455.1-308.26c-15.7 10.93-13.8 23.77-15.2 36.46 0 0.39-0.1 38.24-0.1 38.63l23.1-0.35s-0.1-38.02-0.1-38.28c0-6.25 2.1-10.34 4.2-13.92l-11.9-22.54z" fill="#025"/>
</g>
</g>
</g>
<g stroke-linejoin="round" fill-rule="evenodd" transform="matrix(.91871 0 0 .91871 357.7 357.56)" stroke-linecap="round" stroke-width="0.2">
<path d="m152.56-287.97c-0.63-0.39-1.47-0.21-2.2 0.25-0.72 0.46-1.38 1.18-1.9 2.08-0.52 0.91-0.82 1.85-0.87 2.72-0.05 0.88 0.2 1.73 0.83 2.12 0.63 0.4 1.47 0.21 2.2-0.24 0.72-0.46 1.4-1.17 1.92-2.08 0.52-0.9 0.8-1.85 0.85-2.73s-0.2-1.73-0.83-2.12z" fill="#025" stroke="#000"/>
<path d="m151.19-285.6c0.04 0.02 0.1 0.08 0.09 0.35-0.02 0.27-0.14 0.69-0.39 1.12-0.24 0.42-0.54 0.74-0.76 0.88s-0.3 0.11-0.34 0.08c-0.04-0.02-0.08-0.07-0.07-0.33 0.02-0.27 0.12-0.71 0.36-1.13 0.25-0.43 0.57-0.73 0.79-0.87s0.28-0.12 0.32-0.1z" fill="#fff" stroke="#fff"/>
</g>
<g id="a" transform="translate(2958.6,442.63)">
<path d="m-2798-244.59h24.5v11.34h-24.5z" fill-rule="evenodd" stroke="#000" stroke-width=".20784px" fill="#fac53a"/>
<g stroke-linejoin="round" stroke="#c13c1b" stroke-linecap="round" stroke-width=".61778" fill="none">
<path d="m-2796.3-243.43h21.2"/>
<path d="m-2796.3-241.63h21.2"/>
<path d="m-2796.3-239.82h21.2"/>
<path d="m-2796.3-238.01h21.2"/>
<path d="m-2796.3-236.2h21.2"/>
<path d="m-2796.3-234.39h21.2"/>
</g>
</g>
<use xlink:href="#a" transform="matrix(.94218 0 0 1 336.86 0)" height="700" width="710" y="0" x="0"/>
<use xlink:href="#a" transform="matrix(1.0723 0 0 1 358.72 0)" height="700" width="710" y="0" x="0"/>
<g id="c" stroke="#000" transform="matrix(-.69511 .083596 .083596 .69511 355.9 426.55)">
<path stroke-linejoin="round" d="m214.7-289.34c-4.46-0.38-45.4-7.5-49.26-13.82-1.33-2.19-1.31-6.14 3.38-7.94-3.13-2.79-2.01-8.14 2.42-8.55-2.67-3.59-1.45-7.36 2.18-8.89-2.94-3.81-1.24-6.58 2.9-7.9-5.19 0.84-14.06-2.32-9.53-10.91l8.37 3.12c8.63-0.94 15.9 1.38 22.63 3.37 5.41 1.59 11.33 11.84 18.43 18.53l5.68 5.32" fill-rule="evenodd" stroke-linecap="round" stroke-width=".5" fill="#a13c2a"/>
<g stroke-linejoin="round" fill-rule="evenodd" transform="matrix(-.073831 .29909 -.29909 -.073831 466.99 -28.846)" stroke-linecap="round">
<g transform="translate(1592.3,738.29)">
<path d="m-2309.5 199.79 97.3 0.76-4.1 61.37-92.7-3.54-0.5-58.59z" fill="#fac53a"/>
<path d="m-2309.5 208.63 96.5 1.26-1 18.96-95.2-1.49-0.3-18.73z" fill="#04a"/>
</g>
<path d="m-719.32 937.33 101.56 1.26-5.19 61.51-94.99-3.42-1.38-59.35z" fill="#fac53a"/>
<path d="m-718.94 946.58 100.22 1.28-1.55 19.37-98.41-1.93-0.26-18.72z" fill="#04a"/>
<path d="m-718.55 971.44 97.64 1.54-1.62 18.96-95.76-1.78-0.26-18.72z" fill="#04a"/>
</g>
<path d="m176.44-336.59c4.99-0.84 7.27 1.47 13.05 1.88" stroke-width=".26437" fill="none"/>
</g>
<use xlink:href="#c" transform="translate(339.43)" height="700" width="710" y="0" x="0"/>
</svg>
